<?xml version="1.0" encoding="utf-8"?>
<!-- Generator: Adobe Illustrator 24.1.3, SVG Export Plug-In . SVG Version: 6.00 Build 0)  -->
<svg version="1.1"
	 id="svg2" xmlns:cc="http://web.resource.org/cc/" xmlns:dc="http://purl.org/dc/elements/1.1/" xmlns:inkscape="http://www.inkscape.org/namespaces/inkscape" xmlns:ns1="http://sozi.baierouge.fr" xmlns:rdf="http://www.w3.org/1999/02/22-rdf-syntax-ns#" xmlns:sodipodi="http://sodipodi.sourceforge.net/DTD/sodipodi-0.dtd" xmlns:svg="http://www.w3.org/2000/svg"
	 xmlns="http://www.w3.org/2000/svg" xmlns:xlink="http://www.w3.org/1999/xlink" x="0px" y="0px" viewBox="0 0 128 128"
	 style="enable-background:new 0 0 128 128;" xml:space="preserve">
<style type="text/css">
	.st0{fill:#FEFEFE;}
</style>
<g id="layer1" transform="translate(3.7859e-7 -722.07)">
	<g id="g1563" transform="matrix(.23944 0 0 .23944 94.337 797.27)">
		<path id="path1565" class="st0" d="M-131.2,37.5l-3.3-17.2l-7.7,1.5l-3-15.3l-7.7,1.5l-3-15.3l-7.7,1.5l-3.3-17.2l-9.6,1.9
			l-1.5-7.7l-7.7,1.5l-3-15.3l17.2-3.3l1.5,7.7l7.7-1.5l4.4,23l7.7-1.5l-20-103.4l15.3-3l14.1,72.7l7.7-1.5l-6.3-32.5l17.2-3.3
			l6.3,32.5l7.7-1.5l-4.8-24.9l15.3-3l6.3,32.5l7.7-1.5L-88.4-80l9.6-1.9l1.9,9.6l7.7-1.5l10.7,55.5l-7.7,1.5l4.4,23l-9.6,1.9
			l3.3,17.2L-131.2,37.5z"/>
		<path id="path1567" d="M-137.4,46.7l-4.8-24.9l-7.7,1.5l-3-15.3l-7.7,1.5l-3-15.3L-173-4l-3.3-17.2l-7.7,1.5l-1.5-7.7l-7.7,1.5
			l-4.4-23l24.9-4.8l1.5,7.7l7.7-1.5l-14.1-72.7l7.7-1.5l-1.5-7.7l15.3-3l1.5,7.7l7.7-1.5l6.3,32.5l17.2-3.3l1.5,7.7l23-4.4l1.5,7.7
			l17.2-3.3l1.5,7.7l7.7-1.5l1.9,9.6l7.7-1.5L-51-19.7l-7.7,1.5l4.4,23l-7.7,1.5l4.8,24.9L-137.4,46.7z M-68.1,25.3l-3.3-17.2
			l9.6-1.9l-4.4-23l7.7-1.5l-10.7-55.5l-7.7,1.5l-1.9-9.6l-9.6,1.9l4.8,24.9l-7.7,1.5l-6.3-32.5l-15.3,3l4.8,24.9l-7.7,1.5
			l-6.3-32.5l-17.2,3.3l6.3,32.5l-7.7,1.5l-14.1-72.7l-15.3,3l20,103.4l-7.7,1.5l-4.4-23l-7.7,1.5l-1.5-7.7l-17.2,3.3l3,15.3
			l7.7-1.5l1.5,7.7l9.6-1.9l3.3,17.2l7.7-1.5l3,15.3l7.7-1.5l3,15.3l7.7-1.5l3.3,17.2L-68.1,25.3z"/>
	</g>
</g>
</svg>
